<?xml version="1.0" encoding="UTF-8" ?>
<!DOCTYPE svg PUBLIC "-//W3C//DTD SVG 1.1//EN" "http://www.w3.org/Graphics/SVG/1.1/DTD/svg11.dtd">
<svg width="96pt" height="96pt" viewBox="0 0 96 96" version="1.1" xmlns="http://www.w3.org/2000/svg">
<g id="#ffffffff">
<path fill="#ffffff" opacity="1.00" d=" M 32.70 8.69 C 42.23 1.29 57.70 1.88 65.88 11.12 C 71.38 16.24 71.95 24.18 72.72 31.15 C 74.73 32.14 76.90 32.94 78.58 34.46 C 80.95 37.72 79.21 42.32 80.06 45.97 C 80.19 57.98 80.42 70.01 79.90 82.02 C 79.76 84.48 78.35 87.28 75.61 87.49 C 59.09 88.63 42.50 88.11 25.96 87.98 C 22.80 88.25 16.90 88.01 16.52 83.61 C 15.44 70.43 15.86 57.18 15.87 43.97 C 16.42 41.04 15.18 37.05 17.47 34.52 C 19.07 33.00 21.12 32.09 23.03 31.02 C 23.56 22.80 25.68 13.87 32.70 8.69 M 36.30 18.28 C 33.11 22.12 32.68 27.26 31.58 31.95 C 42.54 32.02 53.51 32.01 64.48 31.93 C 63.19 27.08 62.96 21.51 59.22 17.78 C 53.69 10.94 41.52 11.16 36.30 18.28 M 45.38 53.31 C 41.17 54.28 39.86 59.79 41.58 63.36 C 43.68 68.74 53.16 68.30 54.74 62.71 C 57.20 56.87 51.22 50.75 45.38 53.31 Z" />
</g>
</svg>
